<?xml version="1.0"?>
<!--Icons from directory ""-->
<svg xmlns="http://www.w3.org/2000/svg" width="40" height="123" viewBox="0 0 40 123"><svg width="6" height="10" fill="none" id="arrow" y="0"><path d="M1.132 9.403a.31.31 0 01-.224.093.318.318 0 01-.225-.543L4.636 5 .683 1.047a.318.318 0 01.45-.45L5.31 4.775a.318.318 0 010 .45L1.132 9.403z" fill="#999"/></svg><svg width="15" height="15" fill="none" id="check" y="10"><path d="M7.49 0a5.504 5.504 0 00-5.498 5.497c0 1.393.878 3.36 2.608 5.848a39.217 39.217 0 002.562 3.285l.328.37.328-.37a39.274 39.274 0 002.561-3.285c1.73-2.488 2.608-4.455 2.608-5.848A5.504 5.504 0 007.49 0zm2.174 10.837a39.876 39.876 0 01-2.174 2.829 39.837 39.837 0 01-2.17-2.822C3.717 8.54 2.87 6.69 2.87 5.497A4.626 4.626 0 017.49.877a4.626 4.626 0 014.62 4.62c0 1.192-.846 3.039-2.446 5.34z" fill="#999"/><path d="M7.489 2.032a3.248 3.248 0 00-3.245 3.244A3.248 3.248 0 007.49 8.521a3.248 3.248 0 003.244-3.245A3.248 3.248 0 007.49 2.032zm0 5.612A2.37 2.37 0 015.12 5.276 2.37 2.37 0 017.49 2.91a2.37 2.37 0 012.367 2.367A2.37 2.37 0 017.49 7.644z" fill="#999"/></svg><svg width="40" height="40" fill="none" id="list" y="25"><path d="M39.333 0h-30a.667.667 0 00-.667.667v10h1.333V1.333h28.667V38a.656.656 0 01-.614.667c-.057 0-.115-.005-.172-.006-.118-.004-.236-.006-.352-.018-.01 0-.02 0-.03-.004a4.673 4.673 0 01-4.137-4.134c0-.01-.003-.02-.004-.028a4.685 4.685 0 01-.024-.477v-1.333a.667.667 0 00-.667-.667H9.999V20H8.666v12H3.333a.667.667 0 00-.667.667V34a6.007 6.007 0 006 6h29.4a1.985 1.985 0 001.933-2V.667A.667.667 0 0039.333 0zM8.666 38.667A4.672 4.672 0 013.999 34v-.667h28V34c.001.22.014.44.038.658.006.058.018.114.026.171.022.162.048.322.084.48.012.056.027.11.041.166a6.003 6.003 0 00.393 1.094c.016.032.03.066.046.096.084.17.176.333.276.493l.038.067c.109.17.226.334.352.493l.021.029a5.879 5.879 0 00.913.922l-25.561-.002z" fill="#4985FF"/><path d="M22 18.667c.177 0 .346-.07.471-.196l2.667-2.666a.667.667 0 000-.943l-2.667-2.667A.667.667 0 0022 12H3.333a3.333 3.333 0 000 6.667H22zm-.172-5.23l1.896 1.896-1.896 1.896-.474-1.896.474-1.896zm-16.495-.104H20.48l-.333 1.334H6.667V16h13.48l.333 1.333H5.333v-4zm-4 2a2 2 0 012-2H4v4h-.667a2 2 0 01-2-2zM15.332 28.667h20A.667.667 0 0036 28V8a.667.667 0 00-1.138-.471l-20 20a.667.667 0 00.471 1.138zM34.666 9.609v1.724h-1.333v1.334h1.333V14h-1.333v1.333h1.333v1.334h-1.333V18h1.333v1.333h-1.333v1.334h1.333V22h-1.333v1.333h1.333v1.334h-1.333V26h1.333v1.333h-1.333V26h-1.334v1.333h-1.333V26h-1.334v1.333H28V26h-1.333v1.333h-1.334V26H24v1.333h-1.333V26h-1.334v1.333H20V26h-1.333v1.333h-1.724L34.666 9.61z" fill="#4985FF"/><path d="M24.99 24.667h6.344a.667.667 0 00.667-.667v-6.343a.667.667 0 00-1.138-.472l-6.344 6.344a.667.667 0 00.472 1.138zm5.677-5.4v4.066h-4.066l4.066-4.066zM30.667 4H17.334v1.333h13.333V4zM32.667 6.667H15.334V8h17.333V6.667zM15.334 20.666h-4V22h4v-1.334zM14 23.334h-2.666v1.333h2.667v-1.334z" fill="#4985FF"/></svg><svg width="15" height="13" fill="none" id="mail" y="65"><path d="M13.169.792H1.834A1.836 1.836 0 000 2.627v7.746c0 1.012.822 1.835 1.834 1.835h11.332A1.836 1.836 0 0015 10.372V2.63A1.834 1.834 0 0013.169.792zm.996 9.581c0 .55-.447.997-.996.997H1.834a.997.997 0 01-.996-.997V2.63c0-.55.447-.997.996-.997h11.332c.55 0 .996.447.996.997v7.743h.003z" fill="#999"/><path d="M9.46 6.404l3.669-3.29a.421.421 0 00.03-.593.421.421 0 00-.592-.031l-5.06 4.54-.986-.88c-.003-.004-.006-.007-.006-.01a.62.62 0 00-.069-.06L2.43 2.488a.418.418 0 00-.593.034.418.418 0 00.035.593l3.712 3.318-3.697 3.46a.42.42 0 00.574.615l3.753-3.51 1.018.909a.419.419 0 00.558-.003l1.046-.938 3.73 3.545a.417.417 0 00.594-.016.42.42 0 00-.016-.592L9.46 6.404z" fill="#999"/></svg><svg width="15" height="15" fill="none" id="phone" y="78"><path d="M14.606 11.572L11.57 9.547a.886.886 0 00-1.186.193l-.885 1.137a.378.378 0 01-.484.102l-.169-.093c-.557-.304-1.251-.682-2.65-2.08-1.397-1.4-1.776-2.094-2.08-2.65l-.093-.169a.378.378 0 01.1-.486l1.137-.884a.887.887 0 00.193-1.187L3.428.394A.882.882 0 002.24.127L.97.889a1.79 1.79 0 00-.816 1.06C-.304 3.615.04 6.49 4.275 10.725 7.644 14.094 10.152 15 11.875 15a4.43 4.43 0 001.175-.154 1.789 1.789 0 001.06-.816l.764-1.27a.882.882 0 00-.268-1.188zm-.163.932l-.762 1.27c-.168.288-.441.5-.762.59-1.538.423-4.224.073-8.29-3.992C.563 6.306.214 3.62.636 2.082c.091-.322.303-.595.591-.764l1.27-.761a.382.382 0 01.516.115l1.1 1.652.923 1.384a.385.385 0 01-.084.515l-1.136.884a.875.875 0 00-.232 1.123l.09.164c.32.586.717 1.315 2.167 2.765 1.45 1.45 2.178 1.847 2.764 2.166l.164.09a.875.875 0 001.123-.231l.884-1.137a.385.385 0 01.515-.083l3.036 2.025c.17.113.222.34.116.515zM8.5 2.501a4.254 4.254 0 014.25 4.25.25.25 0 10.5 0A4.755 4.755 0 008.5 2a.25.25 0 100 .5z" fill="#999"/><path d="M8.5 4.001a2.753 2.753 0 012.75 2.75.25.25 0 10.5 0A3.253 3.253 0 008.5 3.5a.25.25 0 100 .5z" fill="#999"/><path d="M8.5 5.501c.69 0 1.249.56 1.25 1.25a.25.25 0 10.5 0A1.752 1.752 0 008.5 5a.25.25 0 100 .5z" fill="#999"/></svg><svg width="30" height="30" fill="none" id="web" y="93"><path d="M11.836 21.023a.494.494 0 01-.32-.118L8.31 18.176a.495.495 0 010-.754l3.205-2.729a.495.495 0 11.642.754l-2.762 2.352 2.762 2.352a.495.495 0 01-.322.872zM18.163 21.023a.495.495 0 01-.321-.872l2.762-2.352-2.762-2.352a.495.495 0 11.642-.754l3.205 2.729a.495.495 0 010 .754l-3.205 2.73a.493.493 0 01-.32.117zM13.865 23.07a.495.495 0 01-.485-.598l1.997-9.483a.495.495 0 01.97.205l-1.998 9.483a.496.496 0 01-.484.394z" fill="#4985FF"/><path d="M26.674 28.237H3.325A3.33 3.33 0 010 24.912V5.095a3.33 3.33 0 013.325-3.326h23.35A3.33 3.33 0 0130 5.095v19.817a3.33 3.33 0 01-3.326 3.325zM3.325 2.76A2.338 2.338 0 00.991 5.095v19.817a2.338 2.338 0 002.334 2.335h23.35a2.338 2.338 0 002.334-2.335V5.095a2.338 2.338 0 00-2.335-2.335H3.325z" fill="#4985FF"/><path d="M29.505 9.7H.495a.495.495 0 110-.991h29.01a.495.495 0 010 .99zM8.462 7.33a1.57 1.57 0 01-1.567-1.568 1.57 1.57 0 011.567-1.567 1.57 1.57 0 011.567 1.567A1.57 1.57 0 018.462 7.33zm0-2.145a.578.578 0 10.001 1.156.578.578 0 00-.001-1.156zM3.647 7.314A1.57 1.57 0 012.08 5.747 1.57 1.57 0 013.647 4.18a1.57 1.57 0 011.568 1.567 1.57 1.57 0 01-1.568 1.567zm0-2.144a.578.578 0 10.002 1.156.578.578 0 00-.002-1.156zM13.278 7.344a1.57 1.57 0 01-1.567-1.567 1.57 1.57 0 011.567-1.567 1.57 1.57 0 011.567 1.567 1.57 1.57 0 01-1.567 1.567zm0-2.144a.577.577 0 10.002 1.155.577.577 0 00-.002-1.155z" fill="#4985FF"/></svg></svg>
